# xmcd
# Copyright (C) 1995-1998 Ti Kan
#
# Track frame offsets:
#       150
#       15547
#       30540
#       49232
#       63130
#       78550
#       95057
#       109727
#       122720
#       144280
#       159397
#       176142
#
# Disc length: 2532 seconds
#
# Revision: 0
# Processed by: cddbd v1.5.1PL0 Copyright (c) Steve Scherf et al.
# Submitted via: CD-Transfer v1.0
#
DISCID=9809e20c
DTITLE=HIERMEYER - 
DYEAR=1900
DGENRE=
TTITLE0=I DON'T KNOW A THING ABOUT LOVE
TTITLE1=SIXTEEN TONS
TTITLE2=SEVEN SPANISH ANGELS
TTITLE3=SLOW POKE
TTITLE4=TILL' I'M TOO OLD TO DIE YOUNG
TTITLE5=KING OF THE ROAD
TTITLE6=THE YEAR THAT CLAYTON DELANEY DIED
TTITLE7=CHATTANOOGIE SHOE SHINE BOY
TTITLE8=COWARD OF THE COUNTY
TTITLE9=CROSS THE BRAZOS AT WACO
TTITLE10=AS LONG AS I'M ROCKIN' WITH YOU
TTITLE11=I'M MOVIN' ON
EXTD=
EXTT0=
EXTT1=
EXTT2=
EXTT3=
EXTT4=
EXTT5=
EXTT6=
EXTT7=
EXTT8=
EXTT9=
EXTT10=
EXTT11=
PLAYORDER=
